<svg xmlns='http://www.w3.org/2000/svg' version='1.1' width='794px' height='542px'><svg xmlns="http://www.w3.org/2000/svg" id="graphic" font-family="Source Sans Pro" style="position: absolute;" width="773" height="434.40625" x="10.5" y="97.09375"><g class="facets"><g class="fl-facets"><g class="fl-facet" transform="translate(28, 0)" opacity="1"><rect class="fl-facet-rect" width="745" height="434.40625" fill="none"/><rect class="fl-facet-primary-rect" width="745" height="434.40625" y="0" fill="none"/><g class="fl-facet-title"><rect class="fl-facet-title-bg" height="0" width="0" fill="rgb(238, 238, 238)" x="0" opacity="0"/><text class="fl-facet-title-text" font-size="14" font-weight="600" transform="translate(0, 14.700000000000001)" opacity="0" text-anchor="start"><tspan x="0" y="0" dx="0" text-anchor="start"/></text></g><g class="fl-facet-primary" transform="translate(0, 0)"><g class="fl-chart ready"><rect class="fl-chart-debug-rectangle" x="0" y="0" style="stroke-width: 1px; fill: none; display: none; stroke: red;" width="745" height="434.40625"/><clipPath class="fl-data-clip-path" id="facet-clip-0-plot-2-clip-path" transform="translate(28,0)"><rect x="0" y="11.700000000000001" width="732.4567100524903" height="350.10625"/></clipPath><clipPath class="fl-grid-clip-path" id="facet-clip-0-plot-2-grid-clip-path"><rect x="-1.5" y="10.200000000000001" width="735.4567100524903" height="353.10625"/></clipPath><g class="fl-chart-background"><rect class="fl-chart-fill" x="0" y="11.700000000000001" width="732.4567100524903" height="350.10625" fill="none"/><image class="fl-chart-image" x="0" y="11.700000000000001" width="732.4567100524903" height="350.10625" xmlns:ns1="http://www.w3.org/1999/xlink" ns1:href="" preserveAspectRatio="none"/><rect class="fl-chart-interaction" x="0" y="11.700000000000001" width="732.4567100524903" height="350.10625" style="opacity: 0;"/></g><g class="fl-data-background" clip-path="url(#facet-clip-0-plot-2-clip-path)"/><g class="fl-gridlines" clip-path="url(#facet-clip-0-plot-2-grid-clip-path)" style="pointer-events: none;"><g class="fl-gridlines-vertical"><line x1="0" x2="0" y1="361.80625" y2="11.700000000000001" stroke-dasharray="1.4000000000000001 1.4000000000000001" style="shape-rendering: crispedges; opacity: 1; stroke: rgb(179, 179, 179); stroke-width: 1.5;"/><line x1="91.55708875656128" x2="91.55708875656128" y1="361.80625" y2="11.700000000000001" stroke-dasharray="1.4000000000000001 1.4000000000000001" style="shape-rendering: crispedges; opacity: 1; stroke: rgb(179, 179, 179); stroke-width: 1.5;"/><line x1="183.11417751312257" x2="183.11417751312257" y1="361.80625" y2="11.700000000000001" stroke-dasharray="1.4000000000000001 1.4000000000000001" style="shape-rendering: crispedges; opacity: 1; stroke: rgb(179, 179, 179); stroke-width: 1.5;"/><line x1="274.6712662696839" x2="274.6712662696839" y1="361.80625" y2="11.700000000000001" stroke-dasharray="1.4000000000000001 1.4000000000000001" style="shape-rendering: crispedges; opacity: 1; stroke: rgb(179, 179, 179); stroke-width: 1.5;"/><line x1="366.22835502624514" x2="366.22835502624514" y1="361.80625" y2="11.700000000000001" stroke-dasharray="1.4000000000000001 1.4000000000000001" style="shape-rendering: crispedges; opacity: 1; stroke: rgb(179, 179, 179); stroke-width: 1.5;"/><line x1="457.7854437828064" x2="457.7854437828064" y1="361.80625" y2="11.700000000000001" stroke-dasharray="1.4000000000000001 1.4000000000000001" style="shape-rendering: crispedges; opacity: 1; stroke: rgb(179, 179, 179); stroke-width: 1.5;"/><line x1="549.3425325393678" x2="549.3425325393678" y1="361.80625" y2="11.700000000000001" stroke-dasharray="1.4000000000000001 1.4000000000000001" style="shape-rendering: crispedges; opacity: 1; stroke: rgb(179, 179, 179); stroke-width: 1.5;"/><line x1="640.899621295929" x2="640.899621295929" y1="361.80625" y2="11.700000000000001" stroke-dasharray="1.4000000000000001 1.4000000000000001" style="shape-rendering: crispedges; opacity: 1; stroke: rgb(179, 179, 179); stroke-width: 1.5;"/><line x1="732.4567100524903" x2="732.4567100524903" y1="361.80625" y2="11.700000000000001" stroke-dasharray="1.4000000000000001 1.4000000000000001" style="shape-rendering: crispedges; opacity: 1; stroke: rgb(179, 179, 179); stroke-width: 1.5;"/></g><g class="fl-gridlines-horizontal"><line x1="0" x2="732.4567100524903" y1="186.75312499999998" y2="186.75312499999998" style="shape-rendering: crispedges; opacity: 1; stroke: rgb(179, 179, 179); stroke-width: 1.5;"/></g></g><g class="fl-axes" aria-hidden="true"><g class="fl-x-axes"><g class="fl-axis fl-x-axis fl-bottom-axis"><g class="fl-axis-line"><line x1="0" y1="361.80625" y2="361.80625" x2="732.4567100524903" style="shape-rendering: crispedges; stroke-linecap: square; stroke-width: 2; opacity: 1; stroke: rgb(156, 156, 156);"/></g><g class="fl-axis-ticks"><g transform="translate(640.899621295929,361.80625)" style="opacity: 1;"><line y2="7" style="stroke: rgb(156, 156, 156); stroke-width: 2;"/><text text-anchor="end" transform="translate(10.436988830566406,23.240000000000002)" style="user-select: none; cursor: default; fill: rgb(79, 79, 79); font-size: 14px; font-weight: normal;"><tspan x="0" dy="0">700</tspan></text></g><g transform="translate(457.7854437828064,361.80625)" style="opacity: 1;"><line y2="7" style="stroke: rgb(156, 156, 156); stroke-width: 2;"/><text text-anchor="end" transform="translate(10.436988830566406,23.240000000000002)" style="user-select: none; cursor: default; fill: rgb(79, 79, 79); font-size: 14px; font-weight: normal;"><tspan x="0" dy="0">600</tspan></text></g><g transform="translate(274.6712662696839,361.80625)" style="opacity: 1;"><line y2="7" style="stroke: rgb(156, 156, 156); stroke-width: 2;"/><text text-anchor="end" transform="translate(10.436988830566406,23.240000000000002)" style="user-select: none; cursor: default; fill: rgb(79, 79, 79); font-size: 14px; font-weight: normal;"><tspan x="0" dy="0">500</tspan></text></g><g transform="translate(91.55708875656128,361.80625)" style="opacity: 1;"><line y2="7" style="stroke: rgb(156, 156, 156); stroke-width: 2;"/><text text-anchor="end" transform="translate(10.436988830566406,23.240000000000002)" style="user-select: none; cursor: default; fill: rgb(79, 79, 79); font-size: 14px; font-weight: normal;"><tspan x="0" dy="0">400</tspan></text></g><g transform="translate(732.4567100524903,361.80625)" style="opacity: 1;"><line y2="7" style="stroke: rgb(156, 156, 156); stroke-width: 2;"/><text text-anchor="end" transform="translate(10.436988830566406,23.240000000000002)" style="user-select: none; cursor: default; fill: rgb(79, 79, 79); font-size: 14px; font-weight: normal;"><tspan x="0" dy="0">750</tspan></text></g><g transform="translate(549.3425325393678,361.80625)" style="opacity: 1;"><line y2="7" style="stroke: rgb(156, 156, 156); stroke-width: 2;"/><text text-anchor="end" transform="translate(10.436988830566406,23.240000000000002)" style="user-select: none; cursor: default; fill: rgb(79, 79, 79); font-size: 14px; font-weight: normal;"><tspan x="0" dy="0">650</tspan></text></g><g transform="translate(366.22835502624514,361.80625)" style="opacity: 1;"><line y2="7" style="stroke: rgb(156, 156, 156); stroke-width: 2;"/><text text-anchor="end" transform="translate(10.436988830566406,23.240000000000002)" style="user-select: none; cursor: default; fill: rgb(79, 79, 79); font-size: 14px; font-weight: normal;"><tspan x="0" dy="0">550</tspan></text></g><g transform="translate(183.11417751312257,361.80625)" style="opacity: 1;"><line y2="7" style="stroke: rgb(156, 156, 156); stroke-width: 2;"/><text text-anchor="end" transform="translate(10.436988830566406,23.240000000000002)" style="user-select: none; cursor: default; fill: rgb(79, 79, 79); font-size: 14px; font-weight: normal;"><tspan x="0" dy="0">450</tspan></text></g><g transform="translate(0,361.80625)" style="opacity: 1;"><line y2="7" style="stroke: rgb(156, 156, 156); stroke-width: 2;"/><text text-anchor="end" transform="translate(10.436988830566406,23.240000000000002)" style="user-select: none; cursor: default; fill: rgb(79, 79, 79); font-size: 14px; font-weight: normal;"><tspan x="0" dy="0">350</tspan></text></g></g><g class="fl-axis-title"><text text-anchor="middle" x="366.22835502624514" y="403.60625" dy="16.8" style="opacity: 1; user-select: none; cursor: default; fill: rgb(48, 48, 48); font-size: 16.8px; font-weight: bold;">Number of Shootings</text></g></g><g class="fl-axis fl-x-axis fl-top-axis"><g class="fl-axis-line"/><g class="fl-axis-ticks"/><g class="fl-axis-title"/></g></g><g class="fl-y-axes"><g class="fl-axis fl-y-axis fl-left-axis"><g class="fl-axis-line"/><g class="fl-axis-ticks"><g transform="translate(0,186.75312499999998)" style="opacity: 1;"><line x2="-7" style="stroke: rgb(179, 179, 179); stroke-width: 1.5;"/><text text-anchor="end" transform="translate(-28,6.930000000000001)" style="user-select: none; cursor: default; fill: rgb(74, 74, 74); font-size: 21px; font-weight: normal;"><tspan x="0" dy="0"/></text></g></g><g class="fl-axis-title"/></g><g class="fl-axis fl-y-axis fl-right-axis"><g class="fl-axis-line"/><g class="fl-axis-ticks"/><g class="fl-axis-title"/></g></g></g><g class="fl-data-foreground" clip-path="url(#facet-clip-0-plot-2-clip-path)"/></g></g></g></g></g><g class="fits"/><g class="violins"/><g class="lines"/><g class="data-points"><g class="data-point-g" fill="none"><path class="data-point" d="M11.248,0A11.248,11.248,0,1,1,-11.248,0A11.248,11.248,0,1,1,11.248,0" vector-effect="non-scaling-stroke" stroke="#18775b" fill="#18775b" fill-opacity="0.7" stroke-opacity="1" stroke-width="1" transform="translate(211.11417751312257,186.75312499999998) scale(1.1670208333333334)" tabindex="0" role="img" aria-roledescription="data point" aria-label="Monday, Total Shootings: 450.00" id="dot-0"/><clipPath id="image-clip-0"><path class="clip-image" d="M11.248,0A11.248,11.248,0,1,1,-11.248,0A11.248,11.248,0,1,1,11.248,0"/></clipPath><image class="data-point-img" opacity="0" transform="translate(211.11417751312257,186.75312499999998) scale(1.1670208333333334)"/></g><g class="data-point-g" fill="none"><path class="data-point" d="M10.866,0A10.866,10.866,0,1,1,-10.866,0A10.866,10.866,0,1,1,10.866,0" vector-effect="non-scaling-stroke" stroke="#d79056" fill="#d79056" fill-opacity="0.7" stroke-opacity="1" stroke-width="1" transform="translate(156.17992425918578,186.75312499999998) scale(1.1670208333333334)" tabindex="0" role="img" aria-roledescription="data point" aria-label="Tuesday, Total Shootings: 420.00" id="dot-1"/><clipPath id="image-clip-1"><path class="clip-image" d="M10.866,0A10.866,10.866,0,1,1,-10.866,0A10.866,10.866,0,1,1,10.866,0"/></clipPath><image class="data-point-img" opacity="0" transform="translate(156.17992425918578,186.75312499999998) scale(1.1670208333333334)"/></g><g class="data-point-g" fill="none"><path class="data-point" d="M10.564,0A10.564,10.564,0,1,1,-10.564,0A10.564,10.564,0,1,1,10.564,0" vector-effect="non-scaling-stroke" stroke="#5a4efd" fill="#5a4efd" fill-opacity="0.7" stroke-opacity="1" stroke-width="1" transform="translate(114.0636634311676,186.75312499999998) scale(1.1670208333333334)" tabindex="0" role="img" aria-roledescription="data point" aria-label="Wednesday, Total Shootings: 397.00" id="dot-2"/><clipPath id="image-clip-2"><path class="clip-image" d="M10.564,0A10.564,10.564,0,1,1,-10.564,0A10.564,10.564,0,1,1,10.564,0"/></clipPath><image class="data-point-img" opacity="0" transform="translate(114.0636634311676,186.75312499999998) scale(1.1670208333333334)"/></g><g class="data-point-g" fill="none"><path class="data-point" d="M11.285,0A11.285,11.285,0,1,1,-11.285,0A11.285,11.285,0,1,1,11.285,0" vector-effect="non-scaling-stroke" stroke="#e23c92" fill="#e23c92" fill-opacity="0.7" stroke-opacity="1" stroke-width="1" transform="translate(216.60760283851624,186.75312499999998) scale(1.1670208333333334)" tabindex="0" role="img" aria-roledescription="data point" aria-label="Thursday, Total Shootings: 453.00" id="dot-3"/><clipPath id="image-clip-3"><path class="clip-image" d="M11.285,0A11.285,11.285,0,1,1,-11.285,0A11.285,11.285,0,1,1,11.285,0"/></clipPath><image class="data-point-img" opacity="0" transform="translate(216.60760283851624,186.75312499999998) scale(1.1670208333333334)"/></g><g class="data-point-g" fill="none"><path class="data-point" d="M11.347,0A11.347,11.347,0,1,1,-11.347,0A11.347,11.347,0,1,1,11.347,0" vector-effect="non-scaling-stroke" stroke="#7ea6f7" fill="#7ea6f7" fill-opacity="0.7" stroke-opacity="1" stroke-width="1" transform="translate(225.76331171417237,186.75312499999998) scale(1.1670208333333334)" tabindex="0" role="img" aria-roledescription="data point" aria-label="Friday, Total Shootings: 458.00" id="dot-4"/><clipPath id="image-clip-4"><path class="clip-image" d="M11.347,0A11.347,11.347,0,1,1,-11.347,0A11.347,11.347,0,1,1,11.347,0"/></clipPath><image class="data-point-img" opacity="0" transform="translate(225.76331171417237,186.75312499999998) scale(1.1670208333333334)"/></g><g class="data-point-g" fill="none"><path class="data-point" d="M13.308,0A13.308,13.308,0,1,1,-13.308,0A13.308,13.308,0,1,1,13.308,0" vector-effect="non-scaling-stroke" stroke="#eed48c" fill="#eed48c" fill-opacity="0.7" stroke-opacity="1" stroke-width="1" transform="translate(540.7196970367431,186.75312499999998) scale(1.1670208333333334)" tabindex="0" role="img" aria-roledescription="data point" aria-label="Saturday, Total Shootings: 630.00" id="dot-5"/><clipPath id="image-clip-5"><path class="clip-image" d="M13.308,0A13.308,13.308,0,1,1,-13.308,0A13.308,13.308,0,1,1,13.308,0"/></clipPath><image class="data-point-img" opacity="0" transform="translate(540.7196970367431,186.75312499999998) scale(1.1670208333333334)"/></g><g class="data-point-g" fill="none"><path class="data-point" d="M14.048,0A14.048,14.048,0,1,1,-14.048,0A14.048,14.048,0,1,1,14.048,0" vector-effect="non-scaling-stroke" stroke="#79530c" fill="#79530c" fill-opacity="0.7" stroke-opacity="1" stroke-width="1" transform="translate(672.5619048461914,186.75312499999998) scale(1.1670208333333334)" tabindex="0" role="img" aria-roledescription="data point" aria-label="Sunday, Total Shootings: 702.00" id="dot-6"/><clipPath id="image-clip-6"><path class="clip-image" d="M14.048,0A14.048,14.048,0,1,1,-14.048,0A14.048,14.048,0,1,1,14.048,0"/></clipPath><image class="data-point-img" opacity="0" transform="translate(672.5619048461914,186.75312499999998) scale(1.1670208333333334)"/></g></g><g id="axes-highlights"><g class="axis-highlights-facet" opacity="1"><defs><pattern class="fl-pattern-auto" width="4" height="4" patternUnits="userSpaceOnUse" id="fl-pattern-diagonal-x"><path stroke-width="1" shape-rendering="auto" stroke-linecap="square" d="M 0 4 l 4 -4 M -1 1 l 2 -2 M 3 5 l 2 -2" style="stroke: currentcolor;"/></pattern><pattern class="fl-pattern-auto" width="4" height="4" patternUnits="userSpaceOnUse" id="fl-pattern-dots-x"><path stroke-width="1" shape-rendering="auto" stroke-linecap="square" d="M 1 2 A 1.2 1.2 0 1 1 1 2.1 Z" style="fill: currentcolor;"/></pattern><pattern class="fl-pattern-auto" width="4" height="4" patternUnits="userSpaceOnUse" id="fl-pattern-grid-x"><path stroke-width="1" shape-rendering="auto" stroke-linecap="square" d="M 2 0 l 0 4 M 0 2 l 4 0" style="stroke: currentcolor;"/></pattern><pattern class="fl-pattern-auto" width="4" height="4" patternUnits="userSpaceOnUse" id="fl-pattern-diagonal-y"><path stroke-width="1" shape-rendering="auto" stroke-linecap="square" d="M 0 4 l 4 -4 M -1 1 l 2 -2 M 3 5 l 2 -2" style="stroke: currentcolor;"/></pattern><pattern class="fl-pattern-auto" width="4" height="4" patternUnits="userSpaceOnUse" id="fl-pattern-grid-y"><path stroke-width="1" shape-rendering="auto" stroke-linecap="square" d="M 2 0 l 0 4 M 0 2 l 4 0" style="stroke: currentcolor;"/></pattern><pattern class="fl-pattern-auto" width="4" height="4" patternUnits="userSpaceOnUse" id="fl-pattern-dots-y"><path stroke-width="1" shape-rendering="auto" stroke-linecap="square" d="M 1 2 A 1.2 1.2 0 1 1 1 2.1 Z" style="fill: currentcolor;"/></pattern></defs><g class="axis-highlights" transform="translate(28, 0)" style="opacity: 1;"/></g></g></svg><svg xmlns="http://www.w3.org/2000/svg" id="overlay" fill="currentColor" aria-hidden="true" style="position: absolute;" width="773" height="434.40625" x="10.5" y="97.09375"><g class="data-labels"><text dominant-baseline="middle" class="data-label" transform="translate(114.0636634311676, 161.42417149594343)" pointer-events="none" text-anchor="middle" paint-order="stroke" stroke="#e9e9e9" stroke-width="2.6" font-size="13" style="font-weight: bold;"><tspan x="0" y="0">Wednesday</tspan></text><text dominant-baseline="middle" class="data-label" transform="translate(540.7196970367431, 158.22206004341007)" pointer-events="none" text-anchor="middle" paint-order="stroke" stroke="#e9e9e9" stroke-width="2.6" font-size="13" style="font-weight: bold;"><tspan x="0" y="0">Saturday</tspan></text><text dominant-baseline="middle" class="data-label" transform="translate(672.5619048461914, 157.35857436463266)" pointer-events="none" text-anchor="middle" paint-order="stroke" stroke="#e9e9e9" stroke-width="2.6" font-size="13" style="font-weight: bold;"><tspan x="0" y="0">Sunday</tspan></text></g><g class="boxes"/></svg><svg xmlns="http://www.w3.org/2000/svg" id="fl-layout-svg-screenshot-container" class="flourish-screenshot-svg-container" style="left: 0px; top: 0px; width: 794px; height: 542px; position: absolute;" x="0" y="0"><text x="10.5px" y="10.5px" font-family="&quot;Source Sans Pro&quot;" font-size="28px" font-weight="700" fill="rgb(51, 51, 51)" style="dominant-baseline: text-before-edge;"><tspan dy="7" dx="0" x="10.5" opacity="1"></tspan></text><text x="10.5px" y="51.09375px" font-family="&quot;Source Sans Pro&quot;" font-size="19.6px" font-weight="400" fill="rgb(51, 51, 51)" style="dominant-baseline: text-before-edge;"><tspan dy="0" dx="0" x="10.5" opacity="1"/></text><text x="10.5px" y="51.09375px" font-family="&quot;Source Sans Pro&quot;" font-size="16.8px" font-weight="400" fill="rgb(51, 51, 51)" style="dominant-baseline: text-before-edge;"><tspan dy="0" dx="0" x="10.5" opacity="1"/></text><text x="0px" y="0px" font-family="&quot;Source Sans Pro&quot;" font-size="14px" font-weight="400" fill="rgb(51, 51, 51)" style="dominant-baseline: text-before-edge;"><tspan dy="0" dx="0" x="0" opacity="1"/></text></svg><svg xmlns="http://www.w3.org/2000/svg" id="fl-legend-discrete-color-0-svg-screenshot-container" class="flourish-screenshot-svg-container" style="left: 0px; top: 0px; width: 794px; height: 542px; position: absolute;" x="0" y="0"><text x="82.2734375px" y="65.34375px" font-family="&quot;Source Sans Pro&quot;" font-size="14px" font-weight="700" fill="rgb(51, 51, 51)" style="dominant-baseline: text-before-edge;"><tspan dy="0" dx="0" x="82.2734375" opacity="1">Day of the Week</tspan></text><text x="0px" y="0px" font-family="&quot;Source Sans Pro&quot;" font-size="14px" font-weight="700" fill="rgb(51, 51, 51)" style="dominant-baseline: text-before-edge;"><tspan dy="0" dx="0" x="0" opacity="1"/></text><rect x="187.1796875" y="65.09375" width="14px" height="14px" rx="10" ry="10" opacity="1" fill="rgb(24, 119, 91)" stroke="rgb(51,51,51)" stroke-width="0px"/><rect x="257.765625" y="65.09375" width="14px" height="14px" rx="10" ry="10" opacity="1" fill="rgb(215, 144, 86)" stroke="rgb(51,51,51)" stroke-width="0px"/><rect x="330.21875" y="65.09375" width="14px" height="14px" rx="10" ry="10" opacity="1" fill="rgb(90, 78, 253)" stroke="rgb(51,51,51)" stroke-width="0px"/><rect x="421.5703125" y="65.09375" width="14px" height="14px" rx="10" ry="10" opacity="1" fill="rgb(226, 60, 146)" stroke="rgb(51,51,51)" stroke-width="0px"/><rect x="500.140625" y="65.09375" width="14px" height="14px" rx="10" ry="10" opacity="1" fill="rgb(126, 166, 247)" stroke="rgb(51,51,51)" stroke-width="0px"/><rect x="560.2421875" y="65.09375" width="14px" height="14px" rx="10" ry="10" opacity="1" fill="rgb(238, 212, 140)" stroke="rgb(51,51,51)" stroke-width="0px"/><rect x="636.8125" y="65.09375" width="14px" height="14px" rx="10" ry="10" opacity="1" fill="rgb(121, 83, 12)" stroke="rgb(51,51,51)" stroke-width="0px"/><text x="201.1796875px" y="65.09375px" font-family="&quot;Source Sans Pro&quot;" font-size="14px" font-weight="400" fill="rgb(51, 51, 51)" style="dominant-baseline: text-before-edge;"><tspan dy="0" dx="2.8" x="201.1796875" opacity="1">Monday</tspan></text><text x="271.765625px" y="65.09375px" font-family="&quot;Source Sans Pro&quot;" font-size="14px" font-weight="400" fill="rgb(51, 51, 51)" style="dominant-baseline: text-before-edge;"><tspan dy="0" dx="2.8" x="271.765625" opacity="1">Tuesday</tspan></text><text x="344.21875px" y="65.09375px" font-family="&quot;Source Sans Pro&quot;" font-size="14px" font-weight="400" fill="rgb(51, 51, 51)" style="dominant-baseline: text-before-edge;"><tspan dy="0" dx="2.8" x="344.21875" opacity="1">Wednesday</tspan></text><text x="435.5703125px" y="65.09375px" font-family="&quot;Source Sans Pro&quot;" font-size="14px" font-weight="400" fill="rgb(51, 51, 51)" style="dominant-baseline: text-before-edge;"><tspan dy="0" dx="2.8" x="435.5703125" opacity="1">Thursday</tspan></text><text x="514.140625px" y="65.09375px" font-family="&quot;Source Sans Pro&quot;" font-size="14px" font-weight="400" fill="rgb(51, 51, 51)" style="dominant-baseline: text-before-edge;"><tspan dy="0" dx="2.8" x="514.140625" opacity="1">Friday</tspan></text><text x="574.2421875px" y="65.09375px" font-family="&quot;Source Sans Pro&quot;" font-size="14px" font-weight="400" fill="rgb(51, 51, 51)" style="dominant-baseline: text-before-edge;"><tspan dy="0" dx="2.8" x="574.2421875" opacity="1">Saturday</tspan></text><text x="650.8125px" y="65.09375px" font-family="&quot;Source Sans Pro&quot;" font-size="14px" font-weight="400" fill="rgb(51, 51, 51)" style="dominant-baseline: text-before-edge;"><tspan dy="0" dx="2.8" x="650.8125" opacity="1">Sunday</tspan></text></svg></svg>