<svg xmlns='http://www.w3.org/2000/svg' version='1.1' width='794px' height='575px'><svg xmlns="http://www.w3.org/2000/svg" id="graphic" fill="currentColor" font-family="Source Sans Pro" width="773" height="506.40625" x="10.5" y="58.09375"><g class="facets"><g class="fl-facets"><g class="fl-facet" transform="translate(35.53385925292969, 0)" opacity="1"><rect class="fl-facet-rect" width="737.4661407470703" height="420.90625" fill="none"/><rect class="fl-facet-primary-rect" width="737.4661407470703" height="420.90625" y="0" fill="none"/><g class="fl-facet-title"><rect class="fl-facet-title-bg" height="0" width="0" fill="rgb(238, 238, 238)" x="0" opacity="0"/><text class="fl-facet-title-text" font-size="14" font-weight="600" transform="translate(0, 14.700000000000001)" opacity="0" text-anchor="start"><tspan x="0" y="0" dx="0" text-anchor="start"/></text></g><g class="fl-facet-primary" transform="translate(0, 0)"><g class="fl-chart ready"><rect class="fl-chart-debug-rectangle" x="0" y="0" style="stroke-width: 1px; fill: none; display: none; stroke: red;" width="737.4661407470703" height="420.90625"/><clipPath class="fl-data-clip-path" id="fl-axes-1-clip-path"><rect x="0" y="63.45" width="726.8059829711914" height="357.45625"/></clipPath><clipPath class="fl-grid-clip-path" id="fl-axes-1-grid-clip-path"><rect x="-1.5" y="61.45" width="729.8059829711914" height="361.45625"/></clipPath><g class="fl-chart-background"><rect class="fl-chart-fill" x="0" y="63.45" width="726.8059829711914" height="357.45625" fill="none"/><image class="fl-chart-image" x="0" y="63.45" width="726.8059829711914" height="357.45625" preserveAspectRatio="none"/><rect class="fl-chart-interaction" x="0" y="63.45" width="726.8059829711914" height="357.45625" style="opacity: 0;"/></g><g class="fl-data-background" clip-path="url(#fl-axes-1-clip-path)"/><g class="fl-gridlines" clip-path="url(#fl-axes-1-grid-clip-path)" style="pointer-events: none;"><g class="fl-gridlines-vertical"/><g class="fl-gridlines-horizontal"><line x1="0" x2="726.8059829711914" y1="420.90625" y2="420.90625" stroke-dasharray="3.5 3.5" style="shape-rendering: crispedges; opacity: 1; stroke: rgb(186, 186, 186); stroke-width: 2;"/><line x1="0" x2="726.8059829711914" y1="342.40486111111113" y2="342.40486111111113" stroke-dasharray="3.5 3.5" style="shape-rendering: crispedges; opacity: 1; stroke: rgb(186, 186, 186); stroke-width: 2;"/><line x1="0" x2="726.8059829711914" y1="263.90347222222226" y2="263.90347222222226" stroke-dasharray="3.5 3.5" style="shape-rendering: crispedges; opacity: 1; stroke: rgb(186, 186, 186); stroke-width: 2;"/><line x1="0" x2="726.8059829711914" y1="185.40208333333334" y2="185.40208333333334" stroke-dasharray="3.5 3.5" style="shape-rendering: crispedges; opacity: 1; stroke: rgb(186, 186, 186); stroke-width: 2;"/><line x1="0" x2="726.8059829711914" y1="106.90069444444447" y2="106.90069444444447" stroke-dasharray="3.5 3.5" style="shape-rendering: crispedges; opacity: 1; stroke: rgb(186, 186, 186); stroke-width: 2;"/></g></g><g class="fl-axes" aria-hidden="true"><g class="fl-x-axes"><g class="fl-axis fl-x-axis fl-bottom-axis"><g class="fl-axis-line"><line x1="0" y1="420.90625" y2="420.90625" x2="726.8059829711914" style="shape-rendering: crispedges; stroke-linecap: square; stroke-width: 2; opacity: 1; stroke: rgb(186, 186, 186);"/></g><g class="fl-axis-ticks"><g transform="translate(591.2230834960938, 420.90625)" style="opacity: 1;"><line y2="7" style="stroke: rgb(186, 186, 186); stroke-width: 2;"/><text text-anchor="end" transform="translate(8.344619750976562,21.588)" style="user-select: none; cursor: default; fill: rgb(74, 74, 74); font-size: 16.8px; font-weight: normal;"><tspan x="0" dy="0">10</tspan></text></g><g transform="translate(525.5316162109375, 420.90625)" style="opacity: 1;"><line y2="7" style="stroke: rgb(186, 186, 186); stroke-width: 2;"/><text text-anchor="end" transform="translate(4.172309875488281,21.588)" style="user-select: none; cursor: default; fill: rgb(74, 74, 74); font-size: 16.8px; font-weight: normal;"><tspan x="0" dy="0">9</tspan></text></g><g transform="translate(459.8401794433594, 420.90625)" style="opacity: 1;"><line y2="7" style="stroke: rgb(186, 186, 186); stroke-width: 2;"/><text text-anchor="end" transform="translate(4.172309875488281,21.588)" style="user-select: none; cursor: default; fill: rgb(74, 74, 74); font-size: 16.8px; font-weight: normal;"><tspan x="0" dy="0">8</tspan></text></g><g transform="translate(394.1487121582031, 420.90625)" style="opacity: 1;"><line y2="7" style="stroke: rgb(186, 186, 186); stroke-width: 2;"/><text text-anchor="end" transform="translate(4.172309875488281,21.588)" style="user-select: none; cursor: default; fill: rgb(74, 74, 74); font-size: 16.8px; font-weight: normal;"><tspan x="0" dy="0">7</tspan></text></g><g transform="translate(328.457275390625, 420.90625)" style="opacity: 1;"><line y2="7" style="stroke: rgb(186, 186, 186); stroke-width: 2;"/><text text-anchor="end" transform="translate(4.172309875488281,21.588)" style="user-select: none; cursor: default; fill: rgb(74, 74, 74); font-size: 16.8px; font-weight: normal;"><tspan x="0" dy="0">6</tspan></text></g><g transform="translate(262.76580810546875, 420.90625)" style="opacity: 1;"><line y2="7" style="stroke: rgb(186, 186, 186); stroke-width: 2;"/><text text-anchor="end" transform="translate(4.172309875488281,21.588)" style="user-select: none; cursor: default; fill: rgb(74, 74, 74); font-size: 16.8px; font-weight: normal;"><tspan x="0" dy="0">5</tspan></text></g><g transform="translate(197.07435607910156, 420.90625)" style="opacity: 1;"><line y2="7" style="stroke: rgb(186, 186, 186); stroke-width: 2;"/><text text-anchor="end" transform="translate(4.172309875488281,21.588)" style="user-select: none; cursor: default; fill: rgb(74, 74, 74); font-size: 16.8px; font-weight: normal;"><tspan x="0" dy="0">4</tspan></text></g><g transform="translate(131.38290405273438, 420.90625)" style="opacity: 1;"><line y2="7" style="stroke: rgb(186, 186, 186); stroke-width: 2;"/><text text-anchor="end" transform="translate(4.172309875488281,21.588)" style="user-select: none; cursor: default; fill: rgb(74, 74, 74); font-size: 16.8px; font-weight: normal;"><tspan x="0" dy="0">3</tspan></text></g><g transform="translate(65.69145202636719, 420.90625)" style="opacity: 1;"><line y2="7" style="stroke: rgb(186, 186, 186); stroke-width: 2;"/><text text-anchor="end" transform="translate(4.172309875488281,21.588)" style="user-select: none; cursor: default; fill: rgb(74, 74, 74); font-size: 16.8px; font-weight: normal;"><tspan x="0" dy="0">2</tspan></text></g><g transform="translate(0,420.90625)" style="opacity: 1;"><line y2="7" style="stroke: rgb(186, 186, 186); stroke-width: 2;"/><text text-anchor="end" transform="translate(4.172309875488281,21.588)" style="user-select: none; cursor: default; fill: rgb(74, 74, 74); font-size: 16.8px; font-weight: normal;"><tspan x="0" dy="0">1</tspan></text></g><g transform="translate(722.60595703125, 420.90625)" style="opacity: 1;"><line y2="7" style="stroke: rgb(186, 186, 186); stroke-width: 2;"/><text text-anchor="end" transform="translate(8.344619750976562,21.588)" style="user-select: none; cursor: default; fill: rgb(74, 74, 74); font-size: 16.8px; font-weight: normal;"><tspan x="0" dy="0">12</tspan></text></g><g transform="translate(656.91455078125, 420.90625)" style="opacity: 1;"><line y2="7" style="stroke: rgb(186, 186, 186); stroke-width: 2;"/><text text-anchor="end" transform="translate(8.344619750976562,21.588)" style="user-select: none; cursor: default; fill: rgb(74, 74, 74); font-size: 16.8px; font-weight: normal;"><tspan x="0" dy="0">11</tspan></text></g></g><g class="fl-axis-title"><text text-anchor="middle" x="363.4029914855957" y="466.40625" dy="21" style="opacity: 1; user-select: none; cursor: default; fill: rgb(74, 74, 74); font-size: 21px; font-weight: bold;">Month</text></g></g><g class="fl-axis fl-x-axis fl-top-axis"><g class="fl-axis-line"/><g class="fl-axis-ticks"/><g class="fl-axis-title"/></g></g><g class="fl-y-axes"><g class="fl-axis fl-y-axis fl-left-axis"><g class="fl-axis-line"><line x1="0" x2="0" y1="420.90625" y2="63.45" style="shape-rendering: crispedges; stroke-linecap: square; stroke-width: 2; opacity: 1; stroke: rgb(186, 186, 186);"/></g><g class="fl-axis-ticks"><g transform="translate(0,420.90625)" style="opacity: 1;"><line x2="-7" style="stroke: rgb(186, 186, 186); stroke-width: 2;"/><text text-anchor="end" transform="translate(-10.5,5.5440000000000005)" style="user-select: none; cursor: default; fill: rgb(74, 74, 74); font-size: 16.8px; font-weight: normal;"><tspan x="0" dy="0">0</tspan></text></g><g transform="translate(0, 106.90069580078125)" style="opacity: 1;"><line x2="-7" style="stroke: rgb(186, 186, 186); stroke-width: 2;"/><text text-anchor="end" transform="translate(-10.5,5.5440000000000005)" style="user-select: none; cursor: default; fill: rgb(74, 74, 74); font-size: 16.8px; font-weight: normal;"><tspan x="0" dy="0">400</tspan></text></g><g transform="translate(0, 185.40208435058594)" style="opacity: 1;"><line x2="-7" style="stroke: rgb(186, 186, 186); stroke-width: 2;"/><text text-anchor="end" transform="translate(-10.5,5.5440000000000005)" style="user-select: none; cursor: default; fill: rgb(74, 74, 74); font-size: 16.8px; font-weight: normal;"><tspan x="0" dy="0">300</tspan></text></g><g transform="translate(0, 263.9034729003906)" style="opacity: 1;"><line x2="-7" style="stroke: rgb(186, 186, 186); stroke-width: 2;"/><text text-anchor="end" transform="translate(-10.5,5.5440000000000005)" style="user-select: none; cursor: default; fill: rgb(74, 74, 74); font-size: 16.8px; font-weight: normal;"><tspan x="0" dy="0">200</tspan></text></g><g transform="translate(0, 342.40484619140625)" style="opacity: 1;"><line x2="-7" style="stroke: rgb(186, 186, 186); stroke-width: 2;"/><text text-anchor="end" transform="translate(-10.5,5.5440000000000005)" style="user-select: none; cursor: default; fill: rgb(74, 74, 74); font-size: 16.8px; font-weight: normal;"><tspan x="0" dy="0">100</tspan></text></g></g><g class="fl-axis-title"><text transform="translate(-35.53385925292969,38.95)" text-anchor="start" style="opacity: 1; user-select: none; cursor: default; font-size: 21px; fill: rgb(74, 74, 74); font-weight: bold;">Number of Shootings</text></g></g><g class="fl-axis fl-y-axis fl-right-axis"><g class="fl-axis-line"/><g class="fl-axis-ticks"/><g class="fl-axis-title"/></g></g></g><g class="fl-data-foreground" clip-path="url(#fl-axes-1-clip-path)"/></g></g></g></g></g><g class="annotations below"/><g id="areas"><g class="series" pointer-events="none"><path class="area" transform="translate(35.53385925292969,0)" fill-opacity="0.6" fill="#1D6996" clip-path="url(#clip-0-0)" clip-path-id="0-0" d="M0,249.773C21.897,269.006,43.794,288.239,65.691,288.239C87.589,288.239,109.486,263.642,131.383,253.698C153.28,243.755,175.177,244.278,197.074,228.578C218.972,212.878,240.869,172.057,262.766,159.497C284.663,146.936,306.56,153.217,328.457,140.656C350.354,128.096,372.252,73.145,394.149,73.145C416.046,73.145,437.943,117.891,459.84,121.031C481.737,124.171,503.634,122.601,525.532,125.741C547.429,128.881,569.326,172.449,591.223,188.542C613.12,204.635,635.017,213.008,656.915,222.298C678.812,231.587,700.709,237.933,722.606,244.278 L722.6059829711913,420.90625 L722.606,420.906C700.709,420.906,678.812,420.906,656.915,420.906C635.017,420.906,613.12,420.906,591.223,420.906C569.326,420.906,547.429,420.906,525.532,420.906C503.634,420.906,481.737,420.906,459.84,420.906C437.943,420.906,416.046,420.906,394.149,420.906C372.252,420.906,350.354,420.906,328.457,420.906C306.56,420.906,284.663,420.906,262.766,420.906C240.869,420.906,218.972,420.906,197.074,420.906C175.177,420.906,153.28,420.906,131.383,420.906C109.486,420.906,87.589,420.906,65.691,420.906C43.794,420.906,21.897,420.906,0,420.906 Z"/></g></g><g id="lines"><g class="series"><clipPath id="clip-0-0"><rect width="722.6059829711913" x="0" y="60.650000000000006" height="363.05625000000003"/></clipPath><path class="outline" opacity="0.8" pointer-events="none" fill="none" stroke-width="4.800000000000001" transform="translate(35.53385925292969,0)" clip-path="url(#clip-0-0)" clip-path-id="0-0" d="M0,249.773C21.897,269.006,43.794,288.239,65.691,288.239C87.589,288.239,109.486,263.642,131.383,253.698C153.28,243.755,175.177,244.278,197.074,228.578C218.972,212.878,240.869,172.057,262.766,159.497C284.663,146.936,306.56,153.217,328.457,140.656C350.354,128.096,372.252,73.145,394.149,73.145C416.046,73.145,437.943,117.891,459.84,121.031C481.737,124.171,503.634,122.601,525.532,125.741C547.429,128.881,569.326,172.449,591.223,188.542C613.12,204.635,635.017,213.008,656.915,222.298C678.812,231.587,700.709,237.933,722.606,244.278"/><path class="line" opacity="0.8" pointer-events="none" fill="none" stroke="#1D6996" stroke-width="2.8000000000000003" transform="translate(35.53385925292969,0)" clip-path="url(#clip-0-0)" clip-path-id="0-0" d="M0,249.773C21.897,269.006,43.794,288.239,65.691,288.239C87.589,288.239,109.486,263.642,131.383,253.698C153.28,243.755,175.177,244.278,197.074,228.578C218.972,212.878,240.869,172.057,262.766,159.497C284.663,146.936,306.56,153.217,328.457,140.656C350.354,128.096,372.252,73.145,394.149,73.145C416.046,73.145,437.943,117.891,459.84,121.031C481.737,124.171,503.634,122.601,525.532,125.741C547.429,128.881,569.326,172.449,591.223,188.542C613.12,204.635,635.017,213.008,656.915,222.298C678.812,231.587,700.709,237.933,722.606,244.278"/></g></g><g id="data-points"><g class="series" transform="translate(35.53385925292969,0)" clip-path="url(#clip-data-points-0)"><clipPath id="clip-data-points-0"><rect x="-4.2" y="60.650000000000006" height="360.25625" width="731.0059829711914"/></clipPath><path class="data-point" visibility="visible" fill="#1D6996" data-type="point" transform="translate(0, 0)" d="M-4.2,249.77322222222224A4.2,4.2,0,1,1,4.2,249.77322222222224A4.2,4.2,0,1,1,-4.2,249.77322222222224Z" opacity="1" tabindex="0" role="img" aria-roledescription="data point" id="point-0-0" aria-label="Number of Shootings, 1: 218"/><path class="data-point" visibility="visible" fill="#1D6996" data-type="point" transform="translate(0, 0)" d="M61.49145299738103,288.2389027777778A4.2,4.2,0,1,1,69.89145299738104,288.2389027777778A4.2,4.2,0,1,1,61.49145299738103,288.2389027777778Z" opacity="1" tabindex="0" role="img" aria-roledescription="data point" id="point-0-1" aria-label="Number of Shootings, 2: 169"/><path class="data-point" visibility="visible" fill="#1D6996" data-type="point" transform="translate(0, 0)" d="M127.18290599476207,253.69829166666665A4.2,4.2,0,1,1,135.58290599476206,253.69829166666665A4.2,4.2,0,1,1,127.18290599476207,253.69829166666665Z" opacity="1" tabindex="0" role="img" aria-roledescription="data point" id="point-0-2" aria-label="Number of Shootings, 3: 213"/><path class="data-point" visibility="visible" fill="#1D6996" data-type="point" transform="translate(0, 0)" d="M192.8743589921431,228.57784722222226A4.2,4.2,0,1,1,201.27435899214308,228.57784722222226A4.2,4.2,0,1,1,192.8743589921431,228.57784722222226Z" opacity="1" tabindex="0" role="img" aria-roledescription="data point" id="point-0-3" aria-label="Number of Shootings, 4: 245"/><path class="data-point" visibility="visible" fill="#1D6996" data-type="point" transform="translate(0, 0)" d="M258.56581198952415,159.496625A4.2,4.2,0,1,1,266.9658119895241,159.496625A4.2,4.2,0,1,1,258.56581198952415,159.496625Z" opacity="1" tabindex="0" role="img" aria-roledescription="data point" id="point-0-4" aria-label="Number of Shootings, 5: 333"/><path class="data-point" visibility="visible" fill="#1D6996" data-type="point" transform="translate(0, 0)" d="M324.25726498690517,140.65629166666668A4.2,4.2,0,1,1,332.65726498690515,140.65629166666668A4.2,4.2,0,1,1,324.25726498690517,140.65629166666668Z" opacity="1" tabindex="0" role="img" aria-roledescription="data point" id="point-0-5" aria-label="Number of Shootings, 6: 357"/><path class="data-point" visibility="visible" fill="#1D6996" data-type="point" transform="translate(0, 0)" d="M389.9487179842862,73.14509722222222A4.2,4.2,0,1,1,398.34871798428617,73.14509722222222A4.2,4.2,0,1,1,389.9487179842862,73.14509722222222Z" opacity="1" tabindex="0" role="img" aria-roledescription="data point" id="point-0-6" aria-label="Number of Shootings, 7: 443"/><path class="data-point" visibility="visible" fill="#1D6996" data-type="point" transform="translate(0, 0)" d="M455.6401709816672,121.03094444444443A4.2,4.2,0,1,1,464.0401709816672,121.03094444444443A4.2,4.2,0,1,1,455.6401709816672,121.03094444444443Z" opacity="1" tabindex="0" role="img" aria-roledescription="data point" id="point-0-7" aria-label="Number of Shootings, 8: 382"/><path class="data-point" visibility="visible" fill="#1D6996" data-type="point" transform="translate(0, 0)" d="M521.3316239790482,125.74102777777776A4.2,4.2,0,1,1,529.7316239790483,125.74102777777776A4.2,4.2,0,1,1,521.3316239790482,125.74102777777776Z" opacity="1" tabindex="0" role="img" aria-roledescription="data point" id="point-0-8" aria-label="Number of Shootings, 9: 376"/><path class="data-point" visibility="visible" fill="#1D6996" data-type="point" transform="translate(0, 0)" d="M587.0230769764293,188.5421388888889A4.2,4.2,0,1,1,595.4230769764293,188.5421388888889A4.2,4.2,0,1,1,587.0230769764293,188.5421388888889Z" opacity="1" tabindex="0" role="img" aria-roledescription="data point" id="point-0-9" aria-label="Number of Shootings, 10: 296"/><path class="data-point" visibility="visible" fill="#1D6996" data-type="point" transform="translate(0, 0)" d="M652.7145299738103,222.29773611111113A4.2,4.2,0,1,1,661.1145299738104,222.29773611111113A4.2,4.2,0,1,1,652.7145299738103,222.29773611111113Z" opacity="1" tabindex="0" role="img" aria-roledescription="data point" id="point-0-10" aria-label="Number of Shootings, 11: 253"/><path class="data-point" visibility="visible" fill="#1D6996" data-type="point" transform="translate(0, 0)" d="M718.4059829711913,244.278125A4.2,4.2,0,1,1,726.8059829711914,244.278125A4.2,4.2,0,1,1,718.4059829711913,244.278125Z" opacity="1" tabindex="0" role="img" aria-roledescription="data point" id="point-0-11" aria-label="Number of Shootings, 12: 225"/></g></g><g id="lines-secondary"/><g id="data-points-secondary"/><g id="data-point-labels"><g class="series" transform="translate(35.53385925292969,0)" clip-path="url(#clip-data-points-0)"><g class="data-label" text-anchor="middle" font-weight="600" font-size="12.6px" pointer-events="none" opacity="1" transform="translate(10.338287658691407,266.44722222222225)"><text class="back" stroke-width="3.78" stroke="#1D6996"><tspan class="label"/><tspan class="value" x="0" dy="0">218</tspan></text><text class="front" fill="white"><tspan class="label"/><tspan class="value" x="0" dy="0">218</tspan></text></g><g class="data-label" text-anchor="middle" font-weight="600" font-size="12.6px" pointer-events="none" opacity="1" transform="translate(65.69145299738103,304.91290277777784)"><text class="back" stroke-width="3.78" stroke="#1D6996"><tspan class="label"/><tspan class="value" x="0" dy="0">169</tspan></text><text class="front" fill="white"><tspan class="label"/><tspan class="value" x="0" dy="0">169</tspan></text></g><g class="data-label" text-anchor="middle" font-weight="600" font-size="12.6px" pointer-events="none" opacity="1" transform="translate(131.38290599476207,270.3722916666667)"><text class="back" stroke-width="3.78" stroke="#1D6996"><tspan class="label"/><tspan class="value" x="0" dy="0">213</tspan></text><text class="front" fill="white"><tspan class="label"/><tspan class="value" x="0" dy="0">213</tspan></text></g><g class="data-label" text-anchor="middle" font-weight="600" font-size="12.6px" pointer-events="none" opacity="1" transform="translate(197.0743589921431,245.25184722222224)"><text class="back" stroke-width="3.78" stroke="#1D6996"><tspan class="label"/><tspan class="value" x="0" dy="0">245</tspan></text><text class="front" fill="white"><tspan class="label"/><tspan class="value" x="0" dy="0">245</tspan></text></g><g class="data-label" text-anchor="middle" font-weight="600" font-size="12.6px" pointer-events="none" opacity="1" transform="translate(262.76581198952414,176.17062499999997)"><text class="back" stroke-width="3.78" stroke="#1D6996"><tspan class="label"/><tspan class="value" x="0" dy="0">333</tspan></text><text class="front" fill="white"><tspan class="label"/><tspan class="value" x="0" dy="0">333</tspan></text></g><g class="data-label" text-anchor="middle" font-weight="600" font-size="12.6px" pointer-events="none" opacity="1" transform="translate(328.45726498690516,157.33029166666665)"><text class="back" stroke-width="3.78" stroke="#1D6996"><tspan class="label"/><tspan class="value" x="0" dy="0">357</tspan></text><text class="front" fill="white"><tspan class="label"/><tspan class="value" x="0" dy="0">357</tspan></text></g><g class="data-label" text-anchor="middle" font-weight="600" font-size="12.6px" pointer-events="none" opacity="1" transform="translate(394.1487179842862,89.81909722222223)"><text class="back" stroke-width="3.78" stroke="#1D6996"><tspan class="label"/><tspan class="value" x="0" dy="0">443</tspan></text><text class="front" fill="white"><tspan class="label"/><tspan class="value" x="0" dy="0">443</tspan></text></g><g class="data-label" text-anchor="middle" font-weight="600" font-size="12.6px" pointer-events="none" opacity="1" transform="translate(459.8401709816672,137.70494444444444)"><text class="back" stroke-width="3.78" stroke="#1D6996"><tspan class="label"/><tspan class="value" x="0" dy="0">382</tspan></text><text class="front" fill="white"><tspan class="label"/><tspan class="value" x="0" dy="0">382</tspan></text></g><g class="data-label" text-anchor="middle" font-weight="600" font-size="12.6px" pointer-events="none" opacity="1" transform="translate(525.5316239790483,142.41502777777774)"><text class="back" stroke-width="3.78" stroke="#1D6996"><tspan class="label"/><tspan class="value" x="0" dy="0">376</tspan></text><text class="front" fill="white"><tspan class="label"/><tspan class="value" x="0" dy="0">376</tspan></text></g><g class="data-label" text-anchor="middle" font-weight="600" font-size="12.6px" pointer-events="none" opacity="1" transform="translate(591.2230769764293,205.21613888888888)"><text class="back" stroke-width="3.78" stroke="#1D6996"><tspan class="label"/><tspan class="value" x="0" dy="0">296</tspan></text><text class="front" fill="white"><tspan class="label"/><tspan class="value" x="0" dy="0">296</tspan></text></g><g class="data-label" text-anchor="middle" font-weight="600" font-size="12.6px" pointer-events="none" opacity="1" transform="translate(656.9145299738103,238.9717361111111)"><text class="back" stroke-width="3.78" stroke="#1D6996"><tspan class="label"/><tspan class="value" x="0" dy="0">253</tspan></text><text class="front" fill="white"><tspan class="label"/><tspan class="value" x="0" dy="0">253</tspan></text></g><g class="data-label" text-anchor="middle" font-weight="600" font-size="12.6px" pointer-events="none" opacity="1" transform="translate(712.2676953124999,260.95212499999997)"><text class="back" stroke-width="3.78" stroke="#1D6996"><tspan class="label"/><tspan class="value" x="0" dy="0">225</tspan></text><text class="front" fill="white"><tspan class="label"/><tspan class="value" x="0" dy="0">225</tspan></text></g></g></g><g id="stack-labels"/><g class="annotations above"><g id="axes-highlights"><g class="axis-highlights-facet"><defs><pattern class="fl-pattern-auto" width="4" height="4" patternUnits="userSpaceOnUse" id="fl-pattern-diagonal-x"><path stroke-width="1" shape-rendering="auto" stroke-linecap="square" d="M 0 4 l 4 -4 M -1 1 l 2 -2 M 3 5 l 2 -2" style="stroke: currentcolor;"/></pattern><pattern class="fl-pattern-auto" width="4" height="4" patternUnits="userSpaceOnUse" id="fl-pattern-dots-x"><path stroke-width="1" shape-rendering="auto" stroke-linecap="square" d="M 1 2 A 1.2 1.2 0 1 1 1 2.1 Z" style="fill: currentcolor;"/></pattern><pattern class="fl-pattern-auto" width="4" height="4" patternUnits="userSpaceOnUse" id="fl-pattern-grid-x"><path stroke-width="1" shape-rendering="auto" stroke-linecap="square" d="M 2 0 l 0 4 M 0 2 l 4 0" style="stroke: currentcolor;"/></pattern><pattern class="fl-pattern-auto" width="4" height="4" patternUnits="userSpaceOnUse" id="fl-pattern-diagonal-y"><path stroke-width="1" shape-rendering="auto" stroke-linecap="square" d="M 0 4 l 4 -4 M -1 1 l 2 -2 M 3 5 l 2 -2" style="stroke: currentcolor;"/></pattern><pattern class="fl-pattern-auto" width="4" height="4" patternUnits="userSpaceOnUse" id="fl-pattern-grid-y"><path stroke-width="1" shape-rendering="auto" stroke-linecap="square" d="M 2 0 l 0 4 M 0 2 l 4 0" style="stroke: currentcolor;"/></pattern><pattern class="fl-pattern-auto" width="4" height="4" patternUnits="userSpaceOnUse" id="fl-pattern-dots-y"><path stroke-width="1" shape-rendering="auto" stroke-linecap="square" d="M 1 2 A 1.2 1.2 0 1 1 1 2.1 Z" style="fill: currentcolor;"/></pattern></defs><g class="axis-highlights" transform="translate(35.53385925292969, 0)" style="opacity: 1;"/></g></g></g></svg><svg xmlns="http://www.w3.org/2000/svg" id="fl-layout-svg-screenshot-container" class="flourish-screenshot-svg-container" style="left: 0px; top: 0px; width: 794px; height: 575px; position: absolute;" x="0" y="0"><text x="10.5px" y="10.5px" font-family="&quot;Source Sans Pro&quot;" font-size="28px" font-weight="700" fill="rgb(51, 51, 51)" style="dominant-baseline: text-before-edge;"><tspan dy="0" dx="0" x="10.5" opacity="1"></tspan></text><text x="10.5px" y="44.09375px" font-family="&quot;Source Sans Pro&quot;" font-size="19.6px" font-weight="400" fill="rgb(51, 51, 51)" style="dominant-baseline: text-before-edge;"><tspan dy="0" dx="0" x="10.5" opacity="1"/></text><text x="10.5px" y="44.09375px" font-family="&quot;Source Sans Pro&quot;" font-size="16.8px" font-weight="400" fill="rgb(51, 51, 51)" style="dominant-baseline: text-before-edge;"><tspan dy="0" dx="0" x="10.5" opacity="1"/></text><text x="0px" y="0px" font-family="&quot;Source Sans Pro&quot;" font-size="14px" font-weight="400" fill="rgb(51, 51, 51)" style="dominant-baseline: text-before-edge;"><tspan dy="0" dx="0" x="0" opacity="1"/></text></svg></svg>